<?xml version="1.0" standalone="no"?>
<!DOCTYPE svg PUBLIC "-//W3C//DTD SVG 20010904//EN"
 "http://www.w3.org/TR/2001/REC-SVG-20010904/DTD/svg10.dtd">
<svg version="1.0" xmlns="http://www.w3.org/2000/svg"
 width="1280.000000pt" height="720.000000pt" viewBox="0 0 1280.000000 720.000000"
 preserveAspectRatio="xMidYMid meet">
<metadata>
Created by potrace 1.13, written by Peter Selinger 2001-2015
</metadata>
<g transform="translate(0.000000,720.000000) scale(0.100000,-0.100000)"
fill="#000000" stroke="none">
<path d="M5050 6429 c-41 -10 -79 -24 -85 -31 -7 -8 -5 -9 6 -5 9 3 22 0 28
-6 6 -6 11 -7 11 -3 0 5 8 2 17 -5 11 -10 14 -10 9 -1 -5 9 14 12 86 11 106
-2 166 -11 133 -21 -11 -4 -71 -10 -133 -14 l-114 -7 47 -47 c45 -46 48 -47
93 -42 26 3 50 11 55 18 11 20 107 14 107 -6 0 -9 -3 -20 -7 -26 -5 -5 4 3 18
18 14 15 31 28 37 28 16 0 15 -4 -8 -44 -10 -20 -16 -37 -12 -40 4 -2 14 10
22 27 7 18 19 38 26 45 13 12 34 16 34 6 0 -12 -34 -79 -44 -86 -6 -4 -7 -10
-4 -14 4 -3 21 17 39 46 20 33 35 48 41 42 6 -6 -3 -30 -27 -67 -20 -31 -34
-59 -32 -61 2 -2 20 19 41 46 63 83 66 36 4 -53 -17 -23 -18 -32 -8 -62 l12
-35 25 37 c14 21 34 48 43 60 l18 23 16 -35 c17 -35 17 -36 -14 -79 -16 -25
-30 -47 -30 -50 0 -3 30 -6 66 -6 l67 0 -7 58 c-9 79 -64 191 -126 256 -84 88
-221 147 -339 145 -20 0 -70 -9 -111 -20z"/>
<path d="M5822 6332 c2 -26 8 -46 13 -45 17 2 45 -17 45 -30 0 -7 -9 -23 -19
-34 -14 -15 -17 -23 -8 -32 8 -8 6 -11 -8 -11 -17 0 -18 -2 -5 -10 8 -5 11
-10 6 -10 -5 0 -2 -8 5 -17 8 -9 9 -14 3 -10 -7 4 -15 0 -18 -9 -10 -25 -7
-46 5 -39 6 4 8 13 5 21 -3 8 0 11 8 8 7 -3 27 12 45 33 17 20 37 38 44 39 20
3 18 -37 -3 -67 -25 -34 -25 -39 0 -39 11 0 20 6 20 13 0 9 3 8 9 -2 22 -35
31 5 31 144 l0 144 -91 -1 -90 0 3 -46z"/>
<path d="M6174 6371 c-13 -14 12 -114 27 -105 14 9 39 -15 39 -38 0 -11 -9
-22 -20 -25 -11 -3 -17 -9 -14 -15 3 -5 0 -16 -8 -25 -9 -12 -9 -15 0 -9 8 5
12 1 12 -12 0 -11 18 -39 40 -64 41 -48 60 -103 50 -152 -5 -28 -5 -28 -44 28
-28 41 -42 53 -47 44 -7 -10 -9 -10 -9 1 0 8 -2 12 -5 9 -3 -3 10 -29 30 -59
19 -29 35 -58 35 -64 0 -7 -14 -37 -31 -68 -40 -75 -27 -94 18 -25 52 78 53
78 53 6 0 -66 -1 -68 -54 -135 -53 -65 -54 -68 -38 -87 9 -11 12 -17 6 -13
-13 7 -13 -42 0 -62 6 -9 5 -12 -1 -8 -6 4 -10 -13 -9 -46 1 -32 -3 -51 -10
-50 -6 1 -11 -4 -11 -12 0 -8 7 -11 15 -7 11 4 14 1 9 -11 -12 -31 8 -17 47
34 25 32 41 46 46 39 12 -20 2 -90 -17 -114 -10 -13 -30 -39 -44 -57 -15 -19
-30 -53 -34 -76 l-7 -43 52 0 51 0 -3 -42 c-3 -43 -3 -43 -45 -46 -24 -2 -43
-8 -43 -13 0 -6 -6 -7 -12 -3 -10 6 -10 5 -1 -7 14 -18 13 -99 -2 -99 -5 0 -3
-5 5 -10 8 -5 34 -10 58 -10 41 0 42 -1 42 -33 0 -30 -5 -36 -40 -52 -49 -22
-62 -36 -50 -55 8 -12 14 -12 45 3 45 21 54 21 51 1 -2 -10 -25 -29 -52 -43
-36 -19 -49 -32 -50 -48 -1 -28 -3 -28 48 -3 53 25 56 25 51 -3 -3 -15 -18
-29 -41 -39 -20 -9 -46 -24 -57 -33 -11 -9 -14 -14 -7 -10 7 4 12 0 12 -10 0
-10 -5 -13 -12 -9 -6 4 -8 3 -4 -4 4 -7 24 -3 61 13 38 17 56 21 61 13 5 -7 3
-8 -6 -3 -10 6 -12 4 -7 -7 4 -11 -6 -21 -34 -34 -45 -20 -89 -54 -70 -54 7 0
9 -5 5 -11 -8 -13 25 -4 68 17 35 18 37 18 32 -4 -3 -9 -19 -25 -35 -35 -36
-20 -33 -40 7 -47 16 -3 28 -9 27 -13 -2 -4 -3 -13 -3 -21 0 -8 -16 -15 -41
-19 -22 -3 -43 -8 -46 -11 -3 -3 -7 -28 -8 -56 l-2 -50 48 0 c47 0 49 -1 49
-29 0 -32 -14 -41 -62 -41 -25 0 -29 -3 -26 -22 2 -19 10 -24 46 -26 l42 -3 0
-78 c0 -82 -9 -118 -59 -226 -17 -37 -31 -71 -31 -76 0 -5 17 -9 38 -9 32 0
41 5 51 26 13 30 36 27 35 -5 0 -11 5 -21 13 -21 11 0 13 76 13 430 -1 250 -4
428 -10 425 -5 -3 -12 0 -16 6 -4 7 -3 9 3 6 6 -4 14 0 17 9 3 9 6 406 6 884
l0 868 -91 -2 c-50 0 -93 -3 -95 -5z"/>
<path d="M4855 6327 c-35 -30 -38 -36 -26 -51 11 -13 11 -19 0 -32 -7 -8 -21
-13 -31 -11 -13 4 -23 -4 -34 -25 -16 -30 -16 -31 33 -80 44 -45 48 -53 48
-98 1 -55 4 -56 -74 14 -68 60 -64 25 4 -44 80 -80 81 -108 14 -205 -57 -83
-69 -134 -16 -70 73 88 67 85 65 40 -1 -23 1 -46 5 -52 4 -6 -11 -33 -34 -59
-59 -69 -72 -91 -67 -119 3 -14 1 -25 -3 -25 -5 0 -5 -7 -2 -17 4 -11 3 -14
-5 -9 -8 5 -10 2 -6 -8 5 -14 8 -14 21 -1 20 20 40 19 53 -4 7 -15 6 -23 -6
-35 -19 -20 -23 -20 -44 -1 -15 13 -16 12 -14 -13 2 -15 5 -37 8 -49 3 -13 2
-23 -2 -23 -4 0 -8 -9 -8 -20 0 -16 11 -10 53 32 l53 52 -1 -52 c-2 -47 -6
-58 -44 -100 -47 -53 -69 -89 -58 -95 5 -3 29 -8 56 -12 41 -6 47 -10 47 -31
0 -22 -4 -24 -50 -24 -41 0 -50 -3 -51 -17 -2 -47 3 -168 7 -172 2 -2 29 -6
59 -9 38 -3 55 -9 55 -18 0 -10 -16 -14 -59 -14 -58 0 -59 0 -63 -31 -4 -24 1
-34 23 -50 39 -27 67 -24 135 17 32 20 70 38 84 40 30 5 24 1 -72 -56 -72 -43
-103 -48 -149 -24 -29 15 -30 14 -20 -4 6 -11 8 -22 5 -25 -3 -3 9 -13 26 -22
47 -24 79 -14 204 61 60 36 118 67 128 69 11 3 82 -27 159 -65 126 -64 144
-70 200 -70 87 0 97 8 98 77 0 32 -2 70 -5 86 l-6 27 -324 0 -324 0 2 583 c3
658 -1 619 85 703 l42 41 -68 67 -67 67 -39 -34z"/>
<path d="M3490 5525 c-90 -18 -226 -74 -305 -125 l-65 -43 57 -53 c32 -29 63
-53 69 -54 5 0 59 50 120 111 60 62 118 113 129 115 11 2 33 6 48 9 l29 6 -24
-32 c-12 -17 -28 -40 -34 -51 -7 -11 -28 -37 -49 -58 l-37 -38 64 18 c43 12
62 22 59 31 -2 8 -6 23 -9 33 -4 17 -1 18 29 13 19 -3 145 -9 282 -13 136 -4
250 -11 253 -15 3 -5 -88 -9 -203 -10 l-208 -1 85 -13 c47 -8 94 -12 105 -9
16 4 17 3 5 -5 -19 -14 0 -14 35 -1 19 7 24 7 19 -2 -5 -8 0 -9 14 -6 12 4 20
2 16 -3 -3 -5 1 -10 8 -11 41 -4 69 -18 62 -29 -3 -5 2 -6 10 -3 9 3 16 1 16
-5 0 -6 8 -11 18 -11 15 0 15 -2 2 -10 -12 -8 -10 -10 10 -8 14 2 41 16 61 31
20 15 40 27 45 27 18 0 124 -112 124 -131 0 -11 7 -19 18 -19 9 0 23 -9 29
-19 11 -18 9 -20 -30 -25 -23 -3 -56 -7 -74 -8 -32 -3 -32 -3 -15 -26 16 -20
21 -22 47 -12 63 24 111 -60 67 -119 -27 -37 -18 -51 34 -51 50 0 57 -12 17
-29 -19 -8 -28 -19 -29 -36 -2 -30 -3 -30 46 -5 40 21 86 27 76 11 -4 -5 0
-11 6 -14 10 -3 9 -6 -2 -10 -79 -27 -113 -41 -102 -45 6 -2 12 -11 12 -20 0
-15 -2 -15 -10 -2 -5 8 -10 10 -10 4 0 -21 12 -22 56 -2 36 15 48 17 60 8 21
-18 17 -40 -6 -40 -35 0 -77 -28 -82 -53 -5 -24 -4 -24 28 -11 46 19 71 17 77
-6 4 -16 0 -20 -17 -20 -46 0 -83 -20 -99 -55 l-16 -34 51 24 c61 28 78 24 78
-21 0 -24 -4 -32 -14 -28 -13 5 -100 -37 -122 -60 -7 -6 -15 -21 -18 -32 -6
-21 -2 -22 74 -29 80 -7 80 -7 80 -36 l0 -29 -94 0 -94 0 -26 -44 c-14 -25
-26 -47 -26 -50 0 -3 54 -6 120 -6 l120 0 0 -35 0 -35 -148 0 c-136 0 -150 -2
-167 -20 -18 -20 -17 -20 148 -20 162 0 167 -1 167 -21 0 -17 -6 -20 -37 -19
-21 1 -43 2 -49 1 -12 -1 -38 -49 -37 -68 2 -55 2 -56 19 -42 8 7 22 26 31 42
8 16 18 25 22 21 9 -11 35 -114 30 -117 -41 -26 -77 -59 -76 -69 1 -36 -4 -59
-12 -54 -5 4 -7 -3 -4 -14 3 -11 8 -20 12 -21 3 0 18 -3 33 -5 22 -4 30 2 49
36 26 46 30 47 47 20 7 -11 17 -20 22 -20 14 0 13 917 -1 996 -40 229 -166
435 -351 574 -116 87 -206 129 -358 164 -80 19 -298 20 -390 1z"/>
<path d="M7593 5502 c-28 -3 -33 -7 -33 -28 0 -24 1 -24 22 -10 42 30 50 18
20 -26 -46 -69 -49 -76 -26 -58 10 8 16 10 12 6 -4 -5 -2 -16 5 -24 6 -9 7
-13 2 -10 -6 4 -11 -2 -11 -14 0 -22 5 -18 68 63 l27 34 0 -30 c1 -18 -14 -54
-37 -90 -21 -33 -41 -68 -45 -78 -12 -31 11 -8 39 39 14 24 34 49 44 54 17 9
18 7 10 -21 -5 -16 -26 -58 -48 -92 -58 -93 -75 -130 -56 -123 12 4 12 2 4
-14 -33 -63 12 -21 51 46 16 29 34 56 40 59 5 4 9 -27 8 -77 -1 -54 -4 -74 -8
-58 l-8 25 -13 -27 c-12 -25 -30 -33 -70 -30 -3 0 -5 -22 -5 -49 0 -53 -3 -51
85 -62 21 -3 26 -37 5 -37 -14 0 -15 -15 -13 -112 2 -89 6 -112 17 -110 23 5
5 -81 -29 -137 -18 -28 -34 -51 -37 -51 -3 0 -11 7 -17 15 -8 11 -11 -19 -11
-122 1 -119 4 -147 25 -205 13 -38 26 -68 30 -68 3 0 21 32 40 70 19 39 38 70
43 70 4 0 6 -4 3 -8 -3 -5 3 -25 14 -44 l19 -36 -40 -6 c-29 -5 -39 -11 -39
-25 0 -23 19 -31 75 -31 35 0 46 -5 59 -25 l16 -25 -69 0 c-38 0 -72 -4 -75
-8 -3 -5 7 -20 22 -34 24 -22 39 -27 122 -32 92 -7 150 -20 150 -36 0 -4 -7
-24 -15 -44 -14 -33 -14 -38 2 -54 10 -9 17 -15 16 -13 -1 2 5 10 13 18 8 9
18 28 21 44 3 16 6 29 7 29 0 0 30 -9 64 -20 72 -23 220 -28 240 -8 6 6 -2
-22 -18 -62 -17 -39 -30 -74 -30 -76 0 -10 50 -3 57 9 16 25 35 83 37 111 1
19 7 30 18 32 16 2 16 -1 1 -39 -8 -23 -22 -57 -30 -75 -17 -39 -14 -45 20
-37 18 5 31 20 46 57 28 66 27 96 -1 108 -20 8 -11 15 14 11 4 0 4 7 1 16 -5
12 -3 14 7 8 9 -5 11 -4 6 3 -9 15 381 17 403 3 19 -12 18 -70 -2 -111 -9 -18
-17 -37 -17 -43 0 -5 -7 -23 -15 -40 -27 -58 -63 -167 -54 -161 6 3 7 -6 3
-23 -4 -15 -11 -30 -16 -31 -4 -2 -8 -8 -8 -13 0 -6 6 -7 13 -3 6 4 4 -2 -5
-13 -22 -24 -23 -33 -4 -33 8 0 33 49 61 118 27 64 52 122 57 127 17 18 -1
-50 -32 -125 -34 -83 -36 -93 -16 -109 11 -10 18 -7 31 11 16 23 16 22 11 -17
-3 -22 -5 -43 -6 -47 0 -5 -31 -8 -68 -8 -66 0 -68 -1 -79 -30 l-11 -30 53 0
c64 0 86 -7 78 -26 -4 -10 -24 -14 -77 -14 l-73 0 -32 -45 -32 -45 86 0 c55 0
84 -4 80 -10 -3 -5 -46 -10 -95 -10 -85 0 -92 -2 -134 -32 -25 -18 -45 -35
-45 -38 -1 -3 23 -5 51 -6 169 -3 171 -3 157 -21 -12 -14 -12 -16 0 -8 10 5
12 4 7 -4 -6 -8 -51 -11 -159 -10 -84 1 -170 -3 -192 -9 -22 -6 -62 -13 -89
-17 l-48 -7 7 -56 c4 -31 6 -72 6 -89 -1 -24 3 -33 14 -33 12 0 15 14 15 75
l0 75 30 0 30 0 0 -76 c0 -74 1 -76 23 -70 12 3 25 6 29 6 4 0 8 30 10 68 l3
67 33 3 32 3 0 -59 0 -60 30 11 c26 10 29 16 32 57 3 44 4 45 38 45 30 0 35
-3 33 -22 -2 -13 0 -23 3 -23 16 0 99 70 148 125 67 76 105 140 143 237 l28
73 3 1048 3 1047 -38 1 c-51 1 -107 -2 -112 -7 -2 -2 20 -39 48 -83 29 -44 51
-88 49 -98 -2 -12 -24 15 -63 82 l-60 100 -3 -44 c-2 -24 1 -47 7 -50 5 -4 12
-25 14 -47 3 -23 16 -59 30 -80 48 -76 71 -130 72 -166 1 -21 -2 -38 -7 -38
-5 0 -7 -13 -3 -30 6 -27 4 -30 -19 -30 -19 0 -30 9 -45 38 -11 20 -20 33 -21
27 0 -5 -2 -41 -3 -79 -4 -80 7 -96 62 -96 l38 0 1 -156 c0 -109 -3 -156 -11
-159 -7 -2 -29 -6 -49 -10 l-38 -6 0 -79 c0 -43 -4 -81 -9 -84 -5 -3 -7 -16
-3 -28 3 -13 1 -19 -5 -15 -6 4 -13 -6 -17 -23 -4 -23 6 -57 39 -134 25 -58
54 -120 65 -138 35 -58 35 -58 -134 -58 l-154 0 -63 -38 c-87 -53 -119 -62
-224 -69 -231 -14 -424 116 -506 340 -22 61 -23 70 -26 577 -2 283 -3 552 -3
597 l0 81 -57 4 c-32 1 -73 2 -90 0z"/>
<path d="M5820 5470 c0 -23 15 -45 64 -97 58 -62 64 -72 63 -111 0 -23 -3 -42
-6 -42 -3 0 -25 19 -48 42 -26 26 -43 37 -44 28 -4 -76 -3 -130 4 -130 5 0 6
-4 2 -9 -3 -6 16 -11 42 -13 47 -3 48 -4 49 -35 1 -31 -1 -33 -32 -33 -19 0
-34 -4 -34 -10 0 -5 5 -10 10 -10 6 0 15 -11 21 -24 15 -31 -3 -64 -41 -78
-46 -15 -27 -38 31 -38 36 0 49 -4 49 -14 0 -8 -12 -16 -27 -18 -37 -4 -39
-23 -4 -44 16 -9 31 -27 34 -40 4 -25 1 -24 -68 13 l-41 21 1 -24 c1 -13 5
-27 10 -31 4 -5 4 -1 0 7 -5 8 6 1 23 -17 18 -17 41 -35 52 -38 11 -4 20 -13
20 -21 0 -9 -5 -12 -12 -8 -7 4 -30 18 -51 31 -21 13 -44 22 -50 19 -7 -2 -4
-5 6 -5 15 -1 16 -4 6 -22 -8 -15 -8 -19 0 -15 6 4 11 3 11 -2 0 -6 20 -23 45
-39 27 -16 45 -35 45 -46 0 -17 -3 -17 -37 4 -21 12 -42 26 -47 31 -17 14 -23
9 -18 -20 3 -20 16 -36 44 -53 40 -24 68 -59 48 -59 -6 0 -28 11 -50 25 -49
31 -48 31 -42 0 2 -15 23 -38 53 -60 66 -47 67 -75 1 -36 -27 16 -49 23 -49
17 0 -6 -3 -24 -6 -40 l-6 -29 55 6 c52 5 55 5 52 -16 -2 -18 -11 -23 -48 -27
-37 -4 -45 -9 -50 -30 -13 -52 -2 -68 51 -75 48 -7 49 -8 49 -41 l0 -34 -50 0
c-43 0 -50 -3 -50 -20 0 -17 7 -20 50 -20 l50 0 0 -38 c0 -21 -5 -43 -11 -49
-8 -8 -8 -17 -1 -30 6 -11 10 -33 10 -50 -1 -16 3 -36 7 -43 6 -9 4 -11 -4 -6
-9 6 -11 -2 -6 -31 l7 -38 -24 40 c-13 22 -32 57 -41 78 -10 20 -22 37 -26 37
-23 0 -16 -36 19 -102 74 -142 85 -158 102 -158 17 0 18 53 18 875 l0 875 -90
0 -90 0 0 -30z"/>
<path d="M7230 5492 c0 -5 10 -14 23 -21 12 -6 14 -9 5 -7 -28 8 -21 -1 12
-18 19 -9 28 -10 23 -3 -4 7 1 5 12 -3 16 -13 16 -15 2 -18 -21 -4 -21 -6 -1
-43 22 -43 11 -47 -18 -7 -13 18 -37 50 -52 71 -19 25 -32 35 -38 29 -6 -6 6
-33 35 -77 25 -37 43 -73 40 -80 -12 -33 -32 -20 -69 46 -22 38 -42 69 -46 69
-13 0 -9 -9 33 -80 22 -38 39 -74 37 -80 -2 -6 -23 23 -48 64 l-44 76 -23 -22
c-13 -12 -23 -26 -23 -31 0 -6 17 -40 38 -77 l39 -67 -20 -24 c-10 -13 -24
-24 -31 -24 -6 -1 -10 -5 -9 -10 0 -6 -5 -16 -13 -23 -11 -10 -16 -9 -28 5
-71 88 -68 85 -85 69 -9 -8 -36 -51 -60 -96 -40 -76 -61 -98 -61 -65 0 8 -7
15 -15 15 -8 0 -15 -6 -15 -14 0 -16 -45 -27 -57 -15 -5 5 -35 -18 -68 -51
l-59 -60 112 0 c70 0 112 -4 112 -10 0 -6 -7 -13 -15 -16 -8 -4 -12 -10 -9
-15 9 -15 -3 -10 -21 8 -13 13 -18 14 -25 3 -4 -7 -13 -9 -19 -6 -7 5 -11 -3
-11 -21 -1 -25 -2 -26 -14 -11 -10 13 -15 15 -24 6 -9 -9 -12 -9 -12 0 0 7 -7
12 -15 12 -12 0 -15 -14 -15 -70 0 -64 -2 -71 -26 -87 -25 -16 -28 -16 -58 1
-93 55 -105 60 -121 46 -17 -14 -20 -30 -6 -30 16 0 111 -62 111 -72 0 -5 6
-6 13 -2 9 5 9 4 -1 -7 -10 -11 -25 -7 -89 25 l-76 37 -26 -25 -26 -26 29 0
c50 0 223 -106 204 -125 -4 -5 -13 -3 -20 2 -7 6 -44 27 -83 47 -68 35 -108
44 -133 27 -17 -11 6 -30 45 -37 29 -5 178 -89 189 -106 3 -5 7 -19 8 -31 2
-12 6 -32 10 -44 7 -23 -1 -30 -20 -15 -5 4 40 -44 101 -105 60 -62 112 -113
115 -113 3 0 18 25 33 55 26 54 27 55 47 38 l20 -18 -21 -7 c-14 -5 -19 -15
-17 -30 3 -20 10 -23 53 -26 55 -4 85 -19 63 -33 -7 -5 -44 -9 -82 -9 l-69 0
23 -25 c22 -23 30 -25 117 -25 82 0 94 -2 105 -20 7 -11 20 -20 28 -20 13 0
13 -1 0 -10 -8 -5 -45 -10 -82 -10 -38 0 -68 -4 -68 -9 0 -5 14 -21 31 -35 28
-23 39 -26 115 -26 46 0 87 -1 91 -2 4 -2 25 -22 46 -45 22 -24 46 -43 53 -43
17 0 18 5 -6 -57 l-20 -53 30 0 c23 0 31 5 36 25 3 14 10 25 15 25 5 0 4 -11
-1 -25 -9 -23 -7 -25 19 -25 16 0 31 6 35 15 3 8 10 15 17 15 6 0 9 -7 5 -15
-4 -11 2 -15 22 -15 23 0 -35 62 -411 438 l-437 437 437 438 438 437 -133 0
c-72 0 -132 -4 -132 -8z"/>
<path d="M3005 5248 l-57 -63 79 -6 c90 -8 153 -1 153 15 0 12 -101 116 -112
116 -3 0 -32 -28 -63 -62z"/>
<path d="M3490 5300 c-8 -6 -31 -8 -51 -4 -34 5 -38 3 -68 -42 -17 -26 -31
-55 -31 -64 0 -9 -11 -22 -24 -28 -26 -11 -78 -93 -76 -120 0 -9 2 -53 3 -97
2 -78 3 -82 47 -139 25 -33 61 -72 80 -87 34 -28 37 -28 100 -19 36 5 80 12
98 16 23 4 38 2 50 -9 9 -8 31 -17 47 -19 28 -3 30 -6 31 -43 2 -60 2 -60 33
-99 17 -21 37 -59 46 -86 15 -46 15 -52 -2 -99 -15 -44 -16 -55 -4 -83 7 -18
20 -55 28 -83 8 -27 26 -74 39 -103 13 -29 24 -61 24 -72 0 -25 36 -35 98 -26
54 7 115 59 133 113 6 18 20 40 32 48 17 12 22 25 21 61 -1 42 2 47 37 70 49
30 57 69 34 159 -9 37 -13 79 -10 95 4 16 32 60 64 98 59 70 91 140 91 195 0
27 -2 29 -27 23 -89 -20 -86 -20 -131 26 -58 60 -102 114 -102 125 0 5 -18 34
-40 63 -23 31 -40 65 -40 80 0 46 -18 58 -100 63 -41 3 -85 8 -98 12 -19 6
-24 3 -29 -14 -7 -26 -14 -26 -63 -1 -22 11 -46 20 -55 20 -11 0 -15 11 -15
40 l0 40 -77 0 c-43 0 -85 -5 -93 -10z m155 -27 c-12 -32 -10 -36 15 -49 17
-9 29 -28 38 -61 24 -91 43 -601 21 -588 -5 4 -9 31 -9 60 0 57 -14 75 -58 75
-11 0 -24 6 -30 13 -6 7 -18 95 -27 195 -14 163 -34 300 -50 354 -6 16 0 18
50 18 50 0 56 -2 50 -17z m-257 -55 c20 -25 43 -142 61 -316 10 -97 16 -180
14 -184 -9 -17 -69 -7 -93 15 -64 59 -63 56 -61 200 1 73 -3 145 -8 160 -11
28 -8 32 43 75 9 7 16 24 16 37 0 27 12 32 28 13z m580 -135 c17 -140 6 -341
-33 -614 -22 -154 -80 -378 -95 -363 -19 21 -38 130 -30 179 22 137 42 507 39
703 l-4 209 55 -3 55 -3 13 -108z m208 -195 c25 -25 26 -30 20 -86 -10 -92
-68 -313 -149 -564 l-72 -228 -47 0 c-27 0 -48 4 -48 8 0 5 11 42 25 83 85
245 178 632 191 788 l7 84 23 -29 c13 -16 35 -41 50 -56z"/>
<path d="M3122 5145 c-58 -56 -57 -55 -146 -55 -82 0 -87 -1 -98 -25 -8 -19
-8 -28 2 -40 18 -22 4 -64 -28 -78 -52 -23 -58 -57 -9 -57 43 0 78 -10 72 -20
-3 -5 -1 -11 5 -15 5 -3 10 -12 10 -20 0 -13 -43 2 -103 36 -22 12 -22 12 -31
-23 -5 -24 -3 -28 14 -28 31 0 100 -38 100 -55 0 -12 -8 -11 -46 5 -51 22 -84
14 -84 -21 0 -16 5 -19 20 -14 29 9 103 -28 105 -54 2 -25 4 -25 -31 -6 -37
19 -68 19 -84 0 -9 -11 -9 -15 -1 -15 7 0 9 -4 6 -10 -4 -6 5 -10 20 -10 35 0
85 -27 85 -45 0 -19 -2 -19 -47 0 -20 8 -37 14 -37 13 -1 -2 -8 -12 -16 -22
-13 -17 -13 -18 -1 -11 11 6 13 4 8 -9 -5 -13 -3 -17 6 -13 23 9 90 -29 94
-52 l3 -21 -40 20 c-30 15 -45 18 -58 11 -9 -6 -12 -11 -6 -11 6 0 8 -19 4
-53 l-6 -54 65 -2 c87 -3 92 -11 7 -11 -74 0 -73 3 -44 -73 11 -27 13 -28 77
-26 l66 3 28 -45 28 -44 -75 -3 -76 -3 23 -34 c21 -33 24 -34 109 -41 65 -5
91 -11 104 -25 24 -27 9 -39 -52 -39 -61 0 -67 -10 -34 -53 22 -28 109 -100
97 -79 -5 6 -4 12 2 12 6 0 18 23 28 50 19 53 24 58 41 37 8 -10 7 -26 -3 -62
-19 -63 -19 -65 8 -62 17 1 22 -3 21 -20 0 -12 6 -25 13 -27 8 -3 11 -2 8 3
-3 5 -1 13 5 16 6 4 18 24 27 46 15 39 33 52 33 24 0 -8 -9 -31 -21 -51 -16
-30 -18 -39 -7 -45 20 -13 21 -12 47 36 17 32 27 43 35 35 5 -5 19 -10 30 -10
17 0 15 -4 -11 -22 -45 -31 -43 -71 4 -87 18 -7 33 -17 33 -22 0 -23 18 -4 44
46 25 51 30 54 54 48 15 -4 37 -7 50 -8 21 0 22 -4 22 -67 l0 -68 30 0 c30 0
30 0 30 59 0 64 6 71 64 71 29 0 34 -5 64 -65 17 -36 36 -65 41 -65 28 0 43
18 57 68 16 53 16 56 -2 69 -16 12 -17 15 -4 23 23 15 30 9 61 -49 36 -69 41
-73 73 -65 19 4 26 13 26 30 0 15 6 24 15 24 8 0 15 -7 15 -15 0 -12 4 -13 19
-6 18 10 18 14 -14 98 -33 87 -46 100 -71 68 -6 -8 -13 -13 -16 -10 -2 2 -38
-8 -79 -22 -65 -24 -90 -27 -204 -27 -100 -1 -145 4 -195 18 -208 61 -377 200
-465 381 -57 118 -75 197 -75 326 0 156 37 277 123 407 28 42 55 79 59 80 5 2
12 11 17 21 7 13 5 17 -8 17 -10 0 -23 -5 -29 -11z"/>
<path d="M5016 4762 l-80 -47 37 -3 c27 -2 52 5 92 28 l54 31 65 -31 c46 -22
75 -30 103 -28 l38 3 -92 48 c-51 26 -103 47 -115 47 -13 0 -59 -22 -102 -48z"/>
<path d="M4733 4686 c6 -14 3 -17 -10 -12 -31 11 29 -32 75 -54 41 -20 57 -50
27 -50 -9 0 -34 9 -56 21 -37 18 -39 19 -31 2 5 -10 8 -23 5 -29 -4 -11 58
-44 82 -44 8 0 15 -9 15 -20 0 -24 -16 -25 -56 -6 -56 27 -73 29 -71 7 1 -16
4 -18 22 -9 17 10 18 9 8 -4 -11 -12 -6 -18 31 -36 24 -12 48 -22 53 -22 5 0
11 -25 12 -55 l2 -55 -50 0 -51 0 0 -40 c0 -37 2 -40 28 -40 57 0 72 -10 72
-45 0 -36 5 -33 -95 -51 -33 -5 -37 -8 -20 -14 11 -5 41 -9 68 -9 43 -1 47 -3
47 -26 0 -23 -3 -25 -50 -25 l-50 0 -1 -37 c-1 -21 0 -42 1 -48 1 -5 3 -23 5
-40 1 -16 20 -67 40 -112 l38 -83 39 0 38 0 0 470 c0 259 -4 470 -8 471 -4 0
-15 2 -24 4 -10 2 -16 -1 -15 -7 1 -5 -5 -15 -14 -21 -15 -9 -52 2 -103 31 -5
3 -6 -3 -3 -12z"/>
<path d="M4282 4088 c-7 -7 -12 -17 -12 -24 0 -10 -15 -51 -50 -139 -21 -51
-21 -56 0 -45 11 6 20 17 20 25 0 8 8 15 19 15 38 0 143 143 125 171 -8 13
-88 11 -102 -3z"/>
<path d="M4117 4045 c-43 -33 -46 -37 -36 -63 22 -58 42 -92 53 -92 21 0 92
162 80 181 -11 19 -53 8 -97 -26z"/>
</g>
</svg>
